<svg id="Layer_1" data-name="Layer 1" xmlns="http://www.w3.org/2000/svg" viewBox="0 0 177.54 160.45">
  <defs>
    <style>
      .cls-1 {
        fill: #7db628;
        isolation: isolate;
      }
    </style>
  </defs>
  <title>book-green</title>
  <path class="cls-1" d="M-174.25,60.67a5.86,5.86,0,0,0-1.36.16l-81.61,19.48-81.61-19.48a5.8,5.8,0,0,0-7,4.28,5.8,5.8,0,0,0-.16,1.36v129a5.81,5.81,0,0,0,4.46,5.64c0.89,0.21,82.51,19.7,83,19.81a5.79,5.79,0,0,0,1.28.14,5.72,5.72,0,0,0,1.33-.16l83-19.8a5.8,5.8,0,0,0,4.46-5.64v-129A5.81,5.81,0,0,0-174.25,60.67Zm-5.82,130.27h0l-77.14,18.41h0V92.23h0l2.7-.65,74.45-17.77V190.95h0Zm-63.79-48,30.27-7.4a4.38,4.38,0,0,0,3.34-4.25V104.06a4.39,4.39,0,0,0-4.39-4.38,4.39,4.39,0,0,0-1,.13l-30.27,7.4a4.38,4.38,0,0,0-3.34,4.25v27.19A4.39,4.39,0,0,0-244.9,143,4.39,4.39,0,0,0-243.86,142.9Zm-5.25,18.51a5.81,5.81,0,0,0,5.63,4.39,5.91,5.91,0,0,0,1.42-.17l49.25-12.19a5.8,5.8,0,0,0,4.44-6.9,5.8,5.8,0,0,0-6.9-4.44l-0.36.09-49.26,12.19a5.8,5.8,0,0,0-4.22,7h0Zm53.48,1.9-49.26,12.19a5.8,5.8,0,0,0-4.2,7,5.8,5.8,0,0,0,5.61,4.37,5.86,5.86,0,0,0,1.42-.18l49.25-12.19a5.8,5.8,0,0,0,4.51-6.85,5.8,5.8,0,0,0-6.85-4.51l-0.48.12h0Z" transform="translate(345.99 -60.67)"/>
</svg>
