<svg id="Layer_1" data-name="Layer 1" xmlns="http://www.w3.org/2000/svg" viewBox="0 0 161.57 161.34">
  <defs>
    <style>
      .cls-1 {
        fill: #c13b1a;
        isolation: isolate;
      }
    </style>
  </defs>
  <title>house-red</title>
  <path id="Forma_1" data-name="Forma 1" class="cls-1" d="M-300-153.65h80.79V-315H-300v161.34Zm50.49-141.17h20.2v20.17h-20.2v-20.17Zm0,40.34h20.2v20.17h-20.2v-20.17Zm0,40.33h20.2V-194h-20.2v-20.17Zm-40.4-80.67h20.2v20.17h-20.2v-20.17Zm0,40.34h20.2v20.17h-20.2v-20.17Zm0,40.33h20.2V-194h-20.2v-20.17Zm80.79-50.42h70.69v10.08h-70.69v-10.09h0Zm0,110.92h20.2V-194h30.3v40.34h20.19v-90.75h-70.69v90.75Z" transform="translate(300 314.99)"/>
</svg>
