<svg id="Layer_1" data-name="Layer 1" xmlns="http://www.w3.org/2000/svg" viewBox="0 0 234.01 62.75">
  <defs>
    <style>
      .cls-1 {
        fill: #fff;
      }
    </style>
  </defs>
  <title>mesc-white</title>
  <g>
    <g>
      <polygon class="cls-1" points="43.82 13.74 43.82 16.57 43.82 17.05 43.82 19.36 45.94 17.85 45.96 16.73 45.97 16.73 45.97 9.52 28.15 22.49 9.29 9.59 9.29 50.63 2.15 50.63 2.15 18.36 6.27 20.97 6.27 18.42 0 14.45 0 52.78 11.43 52.78 11.43 13.66 28.19 25.11 43.82 13.74"/>
      <polygon class="cls-1" points="28.13 34.43 14.43 25.4 14.43 25.4 14.43 27.98 28.18 37.04 53.91 18.61 53.91 50.63 46.77 50.63 46.77 27.54 44.62 29.08 44.62 52.78 56.05 52.78 56.05 14.43 28.13 34.43"/>
      <polygon class="cls-1" points="45.97 18.89 45.97 18.89 45.97 18.89 45.97 18.89"/>
    </g>
    <g>
      <path class="cls-1" d="M170.21,125.13v43.6h-7v-21.1L151,165.19l-12.2-17.56v21.1h-7v-43.6l19.21,28Z" transform="translate(-51.89 -115.86)"/>
      <path class="cls-1" d="M205.46,162v6.71H180V126h24.21v6.71H187v10.67h15.67v6.71H187V162h18.48Z" transform="translate(-51.89 -115.86)"/>
      <path class="cls-1" d="M235,135.8a8.23,8.23,0,0,0-7.14-3.66c-3,0-5.49,1.83-5.49,4.57,0,3.84,3.72,4.82,8.66,7,6,2.68,10.85,6,10.85,12.75,0,7.93-5.61,12.87-13.78,12.87-8.84,0-13.48-5.79-14.76-10.12l5.92-3.41a9.12,9.12,0,0,0,8.84,6.83c3.54,0,6.59-2,6.59-6,0-3.6-3.6-5.37-8.11-7.26-6.77-2.81-11.59-6-11.59-12.32,0-7.13,5.55-11.65,12.87-11.65A14.24,14.24,0,0,1,240,131.35Z" transform="translate(-51.89 -115.86)"/>
      <path class="cls-1" d="M255.47,147.38c0,8.9,5.67,15.24,13.66,15.24A15.42,15.42,0,0,0,281,157L285.9,162a21.66,21.66,0,0,1-16.34,7.32c-12.81,0-21.22-9.63-21.22-21.89s8.35-22,21-22a21.19,21.19,0,0,1,16,7l-4.88,5.06a13.91,13.91,0,0,0-11.53-5.31C261.08,132.14,255.47,138.54,255.47,147.38Z" transform="translate(-51.89 -115.86)"/>
    </g>
    <rect class="cls-1" x="67.83" width="0.7" height="62.75"/>
  </g>
</svg>
